<?xml version="1.0" encoding="UTF-8" standalone="no"?>
<!-- Generator: Adobe Illustrator 17.0.0, SVG Export Plug-In . SVG Version: 6.00 Build 0)  -->

<svg
   xmlns:dc="http://purl.org/dc/elements/1.1/"
   xmlns:cc="http://creativecommons.org/ns#"
   xmlns:rdf="http://www.w3.org/1999/02/22-rdf-syntax-ns#"
   xmlns:svg="http://www.w3.org/2000/svg"
   xmlns="http://www.w3.org/2000/svg"
   xmlns:sodipodi="http://sodipodi.sourceforge.net/DTD/sodipodi-0.dtd"
   xmlns:inkscape="http://www.inkscape.org/namespaces/inkscape"
   version="1.1"
   id="svg2"
   sodipodi:docname="sharecloud.svg"
   inkscape:version="0.48.4 r9939"
   x="0px"
   y="0px"
   width="76px"
   height="76px"
   viewBox="0 0 76 76"
   enable-background="new 0 0 76 76"
   xml:space="preserve"><metadata
   id="metadata17"><rdf:RDF><cc:Work
       rdf:about=""><dc:format>image/svg+xml</dc:format><dc:type
         rdf:resource="http://purl.org/dc/dcmitype/StillImage" /></cc:Work></rdf:RDF></metadata><defs
   id="defs15" /><sodipodi:namedview
   pagecolor="#ffffff"
   bordercolor="#666666"
   borderopacity="1"
   objecttolerance="10"
   gridtolerance="10"
   guidetolerance="10"
   inkscape:pageopacity="0"
   inkscape:pageshadow="2"
   inkscape:window-width="1920"
   inkscape:window-height="1017"
   id="namedview13"
   showgrid="false"
   inkscape:zoom="3.1052632"
   inkscape:cx="38"
   inkscape:cy="38"
   inkscape:window-x="1912"
   inkscape:window-y="-8"
   inkscape:window-maximized="1"
   inkscape:current-layer="svg2" />
<g
   id="g3"
   style="fill:#5e5e5e;fill-opacity:1">
	<path
   fill="#3276B1"
   d="M19.548,27.385c3.864-7.55,11.721-12.719,20.785-12.719c0.391,0,0.78,0.01,1.167,0.029   C41.516,19.837,45.688,24,50.833,24c5.155,0,9.333-4.179,9.333-9.333s-4.179-9.333-9.333-9.333c-1.282,0-2.504,0.259-3.617,0.727   c-2.219-0.476-4.522-0.727-6.883-0.727c-13.553,0-25.178,8.254-30.124,20.008l2.124-0.175   C15.008,25.167,17.492,25.985,19.548,27.385z"
   id="path5"
   style="fill:#5e5e5e;fill-opacity:1" />
	<path
   fill="#3276B1"
   d="M12.859,52.726c-1.396-1.33-2.284-3.229-2.281-5.332c-0.001-1.852,0.67-3.565,1.777-4.88   c0.772-0.919,1.763-1.647,2.89-2.118c0-0.001,0-0.001,0-0.002c0.002-3.417,1.732-6.423,4.36-8.208   c-1.709-2.137-4.322-3.52-7.272-3.52C7.179,28.667,3,32.845,3,38c0,3.914,2.409,7.265,5.824,8.651   c3.792,13.843,16.463,24.015,31.509,24.015l2.74-0.113c-2.409-2.333-3.907-5.602-3.907-9.22c-5.794-0.299-11.026-2.71-14.952-6.473   h-5.986C16.162,54.86,14.253,54.061,12.859,52.726z"
   id="path7"
   style="fill:#5e5e5e;fill-opacity:1" />
	<path
   fill="#3276B1"
   d="M63.658,15.13c-0.13,3.677-1.808,6.96-4.401,9.218c1.079,1.493,1.963,3.13,2.663,4.861   c4.801,2.045,8.167,6.804,8.168,12.353c0.002,3.713-1.549,7.061-4.011,9.447c-2.46,2.391-5.846,3.852-9.534,3.852l-11.24,0   c-1.624,1.679-2.637,3.952-2.637,6.473c0,5.155,4.179,9.333,9.333,9.333c4.524,0,8.297-3.219,9.152-7.492   C68.389,57.183,73,48.13,73,38C73,29.095,69.437,21.022,63.658,15.13z"
   id="path9"
   style="fill:#5e5e5e;fill-opacity:1" />
	<path
   fill="#3276B1"
   d="M56.544,51.349c2.755,0,5.264-1.089,7.088-2.859c1.822-1.775,2.944-4.199,2.946-6.929   c-0.001-2.742-1.107-5.209-2.903-7.008c-1.799-1.796-4.266-2.902-7.008-2.903c-1.791,0.001-3.458,0.471-4.906,1.297   c-0.436,0.249-0.956,0.299-1.431,0.139c-0.475-0.16-0.859-0.515-1.055-0.977c-1.866-4.384-6.21-7.461-11.275-7.459   c-5.334-0.003-9.871,3.413-11.551,8.17c-0.238,0.675-0.862,1.138-1.577,1.17c-3.401,0.152-6.119,2.963-6.117,6.405   c0,0.34,0.026,0.672,0.076,0.995c0.146,0.937-0.483,1.823-1.415,1.996c-0.944,0.175-1.776,0.677-2.374,1.388   c-0.597,0.713-0.953,1.617-0.954,2.621c0.003,1.119,0.452,2.075,1.198,2.795c0.748,0.715,1.786,1.16,2.942,1.16L56.544,51.349z"
   id="path11"
   style="fill:#5e5e5e;fill-opacity:1" />
</g>
</svg>